<svg width="545" height="41" xmlns="http://www.w3.org/2000/svg" class="icon">
 <g>
  <title>background</title>
  <rect fill="#000000" id="canvas_background" height="43" width="547" y="-1" x="-1"/>
 </g>

 <g>
  <title>Layer 1</title>
  <path id="svg_1" fill="#ffffff" d="m21.42857,20.357141m-21.42857,0a21.42857,20.35714 0 1 0 42.857139,0a21.42857,20.35714 0 1 0 -42.857139,0z" stroke="null"/>
  <path id="svg_2" fill="#ffffff" d="m450.722105,17.432099l-1.520641,-4.375146a4.350184,3.923739 0 0 0 -5.543598,-2.621613l-0.654453,0.19098a3.34926,3.020934 0 0 1 -3.060527,-0.451403l-0.211735,-0.138894a3.387753,3.055655 0 0 1 -1.328156,-2.482719l0,-0.486128a4.561918,4.114719 0 0 0 -1.308907,-2.916761a4.350184,3.923739 0 0 0 -3.079776,-1.163232l-4.908394,0a4.465676,4.027912 0 0 0 -4.407932,4.045272l0,0.416681a3.734229,3.368168 0 0 1 -1.405149,2.621613l-0.250234,0.173615a3.71498,3.350803 0 0 1 -3.426252,0.503489a4.119199,3.715398 0 0 0 -3.233767,0.208341a4.196198,3.784845 0 0 0 -2.155845,2.309104l-1.578385,4.514035a4.504175,4.062633 0 0 0 2.848792,5.104337l0.307977,0a3.522495,3.177188 0 0 1 2.155845,2.118124l0.115492,0.277788a3.965214,3.576504 0 0 1 -0.442719,3.229275a4.561918,4.114719 0 0 0 0.943181,5.729354l3.984463,2.725786a4.330934,3.906378 0 0 0 2.598564,0.746551a3.849722,3.472336 0 0 0 0.750696,0a4.330934,3.906378 0 0 0 2.829542,-1.736168l0.442719,-0.572936a3.464746,3.125102 0 0 1 2.75255,-1.336847a3.368504,3.038294 0 0 1 2.887291,1.354213l0.230984,0.295148a4.31169,3.889018 0 0 0 6.198052,0.92017l3.907465,-2.638978a4.581168,4.13208 0 0 0 0.96243,-5.607826l-0.500462,-0.659743a3.849722,3.472336 0 0 1 -0.461968,-2.864679a3.637987,3.281356 0 0 1 2.32908,-2.222297l0.38497,-0.121533a4.542669,4.097359 0 0 0 2.848792,-5.086971l0.000016,0l-0.000001,-0.000002zm-19.036868,8.993354a6.737013,6.076589 0 1 1 6.737013,-6.076589a6.737013,6.076589 0 0 1 -6.737013,6.076589z" stroke="null"/>
  <g id="svg_7" stroke="null">
   <path id="svg_6" fill="#ffffff" d="m525.570109,32.533158c0.734328,0 1.467422,-0.377571 2.227492,-1.132713c0.299122,-0.297184 0.299122,-0.779498 0,-1.076682s-0.784589,-0.297184 -1.083711,0c-0.467078,0.465263 -0.842208,0.690589 -1.143781,0.690589s-0.676709,-0.225326 -1.143781,-0.690589c-0.299122,-0.297184 -0.784589,-0.297184 -1.083711,0s-0.299122,0.779498 0,1.076682c0.76007,0.755142 1.493169,1.132713 2.227492,1.132713zm19.614699,-11.662062c0,1.898816 -0.163049,3.621025 -0.490369,5.164193s-0.78704,2.882934 -1.379159,4.016863s-1.341158,2.127792 -2.247109,2.981587s-1.890368,1.557786 -2.952011,2.110741c-1.062871,0.552955 -2.277759,1.001168 -3.647109,1.342205s-2.761998,0.580974 -4.17793,0.717385s-2.97653,0.204619 -4.679331,0.204619c-1.7028,0 -3.265849,-0.068209 -4.689139,-0.204619s-2.819611,-0.375132 -4.188962,-0.717385c-1.36935,-0.34103 -2.587912,-0.789243 -3.656918,-1.342205s-2.06077,-1.256946 -2.972851,-2.110741c-0.912082,-0.853796 -1.664799,-1.847658 -2.258141,-2.981587s-1.055518,-2.472478 -1.388968,-4.016863c-0.33345,-1.544385 -0.500172,-3.265377 -0.500172,-5.164193c0,-3.401788 1.062871,-6.332223 3.187389,-8.791307c-0.122591,-0.327636 -0.22802,-0.703984 -0.316289,-1.126624s-0.17408,-1.020658 -0.25499,-1.79285c-0.082138,-0.772192 -0.051489,-1.663745 0.091942,-2.674664s0.411909,-2.042533 0.806652,-3.094859l0.30648,-0.06212c0.204729,-0.041413 0.538179,-0.026796 1.001578,0.041413s1.004029,0.191219 1.624341,0.369042s1.419612,0.529816 2.400349,1.055982s2.01541,1.192393 3.105251,1.998686c1.852361,-0.560267 4.405951,-1.146107 7.661991,-1.146107s5.815759,0.585846 7.682831,1.146107c1.089841,-0.806294 2.128198,-1.468871 3.116288,-1.987725s1.777581,-0.874502 2.3697,-1.065721c0.592119,-0.191219 1.14133,-0.314235 1.645181,-0.369042s0.827498,-0.071858 0.970929,-0.051152c0.143431,0.020707 0.248861,0.043846 0.316289,0.071858c0.394748,1.052326 0.6669,2.083946 0.817689,3.094859s0.183889,1.898816 0.101751,2.663697c-0.082138,0.764887 -0.170401,1.366561 -0.266022,1.803812s-0.204729,0.812389 -0.32732,1.126624c2.124519,2.445682 3.187389,5.376118 3.187389,8.791307l-0.001228,-0.001217l-0.000002,0.000001zm-5.230998,4.334754c0,-2.208178 -0.817689,-4.210521 -2.451839,-6.008244c-0.490369,-0.548089 -1.059192,-0.963411 -1.706479,-1.244767s-1.382838,-0.442124 -2.206652,-0.479881s-1.610859,-0.030452 -2.359891,0.02314s-1.67583,0.125449 -2.779159,0.216798s-2.057091,0.137627 -2.860069,0.137627c-0.802979,0 -1.756741,-0.045063 -2.860069,-0.137627s-2.030121,-0.163206 -2.779159,-0.216798c-0.749038,-0.053591 -1.536078,-0.060897 -2.359891,-0.02314s-1.563048,0.19853 -2.21646,0.479881c-0.653412,0.28135 -1.225919,0.696678 -1.716288,1.244767c-1.63415,1.797723 -2.451839,3.800065 -2.451839,6.008244c0,1.294703 0.136079,2.448122 0.40823,3.461468s0.616639,1.862276 1.032222,2.546776c0.415588,0.685717 0.997899,1.264251 1.746932,1.736826s1.47478,0.837962 2.176008,1.096172c0.701228,0.258211 1.60718,0.460391 2.717861,0.60533s2.104901,0.232632 2.98266,0.263083c0.878982,0.030452 1.984761,0.046286 3.319789,0.046286s2.438351,-0.015834 3.30998,-0.046286c0.871629,-0.030452 1.86217,-0.118144 2.972851,-0.263083s2.01541,-0.347119 2.717861,-0.60533c0.701228,-0.259427 1.42697,-0.62482 2.176008,-1.096172s1.331349,-1.05111 1.746932,-1.736826c0.415588,-0.685717 0.76007,-1.53464 1.032222,-2.546776s0.40823,-2.166765 0.40823,-3.461468l0.000011,0l-0.000002,0zm-4.576352,-1.194826c0,-2.018176 -1.097199,-3.653909 -2.451839,-3.653909s-2.451839,1.635733 -2.451839,3.653909s1.097199,3.653909 2.451839,3.653909s2.451839,-1.635733 2.451839,-3.653909zm-10.13467,1.194826c0,-2.018176 -1.097199,-3.653909 -2.451839,-3.653909s-2.451839,1.635733 -2.451839,3.653909s1.097199,3.653909 2.451839,3.653909s2.451839,-1.635733 2.451839,-3.653909z" stroke="null"/>
  </g>
  <g id="svg_12" stroke="null">
   <path id="svg_11" fill="#ffffff" d="m321.943382,33.663543q0,-0.60025 0.456469,-1.040087t1.082597,-0.438543t1.082597,0.438543t0.456469,1.040087t-0.456469,1.040087t-1.082597,0.438543t-1.082597,-0.438543t-0.456469,-1.040087zm-6.156252,0q0,-0.60025 0.456469,-1.040087t1.082597,-0.438543t1.082597,0.438543t0.456469,1.040087t-0.456469,1.040087t-1.082597,0.438543t-1.082597,-0.438543t-0.456469,-1.040087zm-3.076779,-5.174568l0,7.391871q0,0.923658 0.673259,1.570481t1.634663,0.646822l35.394423,0q0.961411,0 1.634663,-0.646822t0.673259,-1.570481l0,-7.391871q0,-0.923658 -0.673259,-1.570481t-1.634663,-0.646822l-11.181441,0l-3.246444,3.142256q-1.394984,1.293645 -3.27068,1.293645t-3.27068,-1.293645l-3.27068,-3.142256l-11.157199,0q-0.961411,0 -1.634663,0.646822t-0.673259,1.570481l0.002694,0l0.000007,0zm7.813811,-13.144695q-0.409338,0.946947 0.33663,1.617053l10.772097,10.349137q0.432233,0.438543 1.082597,0.438543t1.082597,-0.438543l10.772097,-10.349137q0.745967,-0.670106 0.33663,-1.617053q-0.409338,-0.900374 -1.419227,-0.900374l-6.154905,0l0,-10.349137q0,-0.60025 -0.456469,-1.040087t-1.082597,-0.438543l-6.154905,0q-0.624781,0 -1.082597,0.438543t-0.456469,1.040087l0,10.349137l-6.154905,0q-1.009882,0 -1.419227,0.900374l-0.001347,0z" stroke="null"/>
  </g>
  <g id="svg_17" stroke="null">
   <path id="svg_16" fill="#ffffff" d="m211.006159,36.338964c0,0.794569 0.644399,1.452914 1.422136,1.452914l31.286509,0c0.777737,0 1.422136,-0.658346 1.422136,-1.452914l0,-31.963644c0,-0.794569 -0.644399,-1.452914 -1.422136,-1.452914l-31.286509,0c-0.777737,0 -1.422136,0.658346 -1.422136,1.452914l0,31.963644z" stroke="null"/>
  </g>
  <g id="svg_22" stroke="null">
   <path id="svg_21" fill="#ffffff" d="m148.590919,18.14502l-29.358426,-15.86918c-0.357311,-0.19308 -0.727537,-0.307089 -1.149367,-0.307089c-1.15036,0 -2.088306,0.862419 -2.088306,1.91515l-0.010919,0l0,32.946479l0.009925,0c0,1.052739 0.939942,1.91515 2.0893,1.91515c0.432749,0 0.791053,-0.134239 1.181129,-0.325471l29.327656,-15.85079a3.075888,2.84928 0 0 0 1.138448,-2.212121c0,-0.890919 -0.442674,-1.6761 -1.139441,-2.212121l0,-0.000008l0.000001,0.000001z" stroke="null"/>
  </g>
 </g>
</svg>